<?xml version="1.0" encoding="UTF-8"?>
<svg id="Camada_2" data-name="Camada 2" xmlns="http://www.w3.org/2000/svg" viewBox="0 0 408.99 408.83">
  <defs>
    <style>
      .cls-1 {
        fill: #fff;
      }
    </style>
  </defs>
  <g id="Camada_1-2" data-name="Camada 1">
    <g>
      <path class="cls-1" d="M110.98,0c62.28,0,124.56,0,186.84,0,1.16,.22,2.32,.53,3.49,.64,16.24,1.49,31.71,5.91,45.75,14.11,39.98,23.36,61.11,58.4,61.6,104.75,.6,56.54,.24,113.1,.1,169.65-.07,29.72-9.52,56.2-29.21,78.6-24.33,27.68-55.29,41.02-92.04,41.05-55.22,.04-110.44-.05-165.66,.04-24.43,.04-47.16-5.79-67.62-19.27-24.71-16.28-41.51-38.62-49.49-67.2C2.5,314.36,1.54,306.01,0,297.82,0,235.54,0,173.26,0,110.98c.2-.88,.51-1.76,.58-2.65,1.29-15.43,5.41-30.07,12.66-43.73C29.23,34.43,53.53,14.2,86.41,4.75c7.99-2.29,16.37-3.2,24.57-4.75Zm93.13,376.86c27.94,0,55.87,.12,83.81-.09,6.74-.05,13.64-.47,20.19-1.94,41.32-9.32,68.68-43.8,68.73-86.34,.06-56.01,.08-112.01-.07-168.02-.02-6.61-.49-13.37-1.94-19.79-9.32-41.32-43.81-68.68-86.34-68.73-56.01-.06-112.01-.08-168.02,.07-6.61,.02-13.37,.49-19.79,1.94C59.51,43.25,32.04,77.66,31.96,119.91c-.1,56.27-.02,112.54-.03,168.82,0,12.8,2.11,25.23,7.72,36.76,16.42,33.72,43.64,50.85,81.05,51.31,27.8,.35,55.61,.07,83.41,.07Z"/>
      <g>
        <path class="cls-1" d="M322.52,312.73h-48.28c0-1.38,0-2.63,0-3.87-.01-26.18,.05-52.36-.1-78.53-.03-5-.52-10.05-1.35-14.98-2.72-16.21-13.63-23.92-29.9-21.45-13.46,2.05-21.35,9.79-23.94,24.19-.99,5.48-1.42,11.14-1.45,16.71-.15,24.66-.07,49.32-.07,73.98,0,1.25,0,2.51,0,3.92h-47.44V154.59h47.35v20c.45-.05,.77,0,.84-.11,9.66-14.81,23.98-21.43,41.01-22.7,11.86-.88,23.6,.33,34.63,5.3,14.29,6.44,22,18.24,25.14,32.96,1.98,9.31,3.31,18.93,3.45,28.44,.44,30.73,.2,61.47,.22,92.21,0,.57-.06,1.14-.11,2.05Z"/>
        <path class="cls-1" d="M89.95,312.62V154.57h48.66v158.05h-48.66Z"/>
        <path class="cls-1" d="M143.79,104.1c-.09,15.79-13.11,28.63-28.96,28.53-15.79-.1-28.61-13.11-28.52-28.97,.09-15.8,13.09-28.61,28.96-28.52,15.8,.09,28.62,13.1,28.52,28.96Z"/>
      </g>
    </g>
  </g>
</svg>