<?xml version="1.0" encoding="UTF-8"?>
<svg id="Camada_2" data-name="Camada 2" xmlns="http://www.w3.org/2000/svg" viewBox="0 0 408.99 408.83">
  <defs>
    <style>
      .cls-1 {
        fill: #fff;
      }
    </style>
  </defs>
  <g id="Camada_1-2" data-name="Camada 1">
    <g>
      <path class="cls-1" d="M110.98,0c62.28,0,124.56,0,186.84,0,1.16,.22,2.32,.53,3.49,.64,16.24,1.49,31.71,5.91,45.75,14.11,39.98,23.36,61.11,58.4,61.6,104.75,.6,56.54,.24,113.1,.1,169.65-.07,29.72-9.52,56.2-29.21,78.6-24.33,27.68-55.29,41.02-92.04,41.05-55.22,.04-110.44-.05-165.66,.04-24.43,.04-47.16-5.79-67.62-19.27-24.71-16.28-41.51-38.62-49.49-67.2C2.5,314.36,1.54,306.01,0,297.82,0,235.54,0,173.26,0,110.98c.2-.88,.51-1.76,.58-2.65,1.29-15.43,5.41-30.07,12.66-43.73C29.23,34.43,53.53,14.2,86.41,4.75c7.99-2.29,16.37-3.2,24.57-4.75Zm93.13,376.86c27.94,0,55.87,.12,83.81-.09,6.74-.05,13.64-.47,20.19-1.94,41.32-9.32,68.68-43.8,68.73-86.34,.06-56.01,.08-112.01-.07-168.02-.02-6.61-.49-13.37-1.94-19.79-9.32-41.32-43.81-68.68-86.34-68.73-56.01-.06-112.01-.08-168.02,.07-6.61,.02-13.37,.49-19.79,1.94C59.51,43.25,32.04,77.66,31.96,119.91c-.1,56.27-.02,112.54-.03,168.82,0,12.8,2.11,25.23,7.72,36.76,16.42,33.72,43.64,50.85,81.05,51.31,27.8,.35,55.61,.07,83.41,.07Z"/>
      <path class="cls-1" d="M204.24,94.23c60.46-.19,110.26,49.5,110.34,110.11,.08,60.52-49.67,110.28-110.21,110.24-60.45-.04-109.83-49.32-110.14-109.91-.31-60.41,49.33-110.24,110.01-110.44Zm.41,31.94c-42.96-.19-78.28,34.91-78.48,77.99-.2,42.95,34.91,78.28,77.99,78.48,42.94,.2,78.28-34.92,78.48-77.99,.2-42.95-34.92-78.29-77.99-78.48Z"/>
      <path class="cls-1" d="M316.28,76.68c8.78,.05,15.95,7.36,15.84,16.14-.11,8.78-7.46,15.91-16.24,15.74-8.62-.16-15.64-7.31-15.65-15.94,0-8.78,7.26-16,16.04-15.94Z"/>
    </g>
  </g>
</svg>