<svg xmlns="http://www.w3.org/2000/svg" viewBox="0 0 480.68 212.52"><defs><style>.cls-1{isolation:isolate;}.cls-2{fill:#fff;}.cls-3{fill:#1adcff;}</style></defs><g id="Layer_2" data-name="Layer 2"><g id="Camada_2" data-name="Camada 2"><g class="cls-1"><g class="cls-1"><path class="cls-2" d="M64.89,66.42,77.11,80.8C69,88.05,58.79,91.62,46.57,91.62c-12.85,0-23.92-4.33-33-12.86S0,59.17,0,45.81,4.58,21.5,13.61,13s20.11-13,33-13c11.83,0,21.89,3.56,30,10.56L64.26,24.43a28.91,28.91,0,0,0-16.42-5.22c-7.76,0-14.12,2.55-19.08,7.51s-7.38,11.33-7.38,19.09,2.41,14.12,7.38,19.08S40.08,72.4,47.84,72.4A26.73,26.73,0,0,0,64.89,66.42Z"/><path class="cls-2" d="M107.91,25.19a32.07,32.07,0,0,1,23.79,0c8.14,2.93,15.4,8,19.85,17.18a36,36,0,0,1,0,30.29c-4.45,9-11.71,14-19.85,16.92a36.33,36.33,0,0,1-23.79,0c-8-2.93-15.27-7.89-19.73-16.92a36,36,0,0,1,0-30.29C92.64,33.21,99.89,28.12,107.91,25.19Zm-3.69,32.32c0,5,1.52,9,4.7,12a15.62,15.62,0,0,0,11,4.46,15.09,15.09,0,0,0,10.81-4.46c3.18-2.92,4.71-7,4.71-12,0-5.21-1.53-9.41-4.71-12.34a14.73,14.73,0,0,0-10.81-4.58,15.24,15.24,0,0,0-11,4.58C105.74,48.1,104.22,52.3,104.22,57.51Z"/><path class="cls-2" d="M253.09,22.9a25.16,25.16,0,0,1,19,7.89q7.63,7.83,7.64,23.67V90.34H259.58V55.1c0-8.78-4.32-14.64-12.6-14.64-7.63,0-12.72,5.73-14.75,12.86v37H212.12V55.1c0-8.53-5.09-14.64-12.85-14.64-8,0-13.11,5.22-14.51,12.86v37h-20.1V24.18h20.1V36.65q.19-3.82,5.73-8.78c3.69-3.31,8.27-5,14-5,9.54,0,19,5.48,24.17,14.76,1.15-3.18,4-6.36,8.15-9.67S246.48,22.9,253.09,22.9Z"/><path class="cls-2" d="M381,22.9a25.19,25.19,0,0,1,19,7.89q7.63,7.83,7.63,23.67V90.34h-20.1V55.1c0-8.78-4.33-14.64-12.6-14.64-7.64,0-12.72,5.73-14.76,12.86v37H340V55.1c0-8.53-5.09-14.64-12.86-14.64-8,0-13.1,5.22-14.5,12.86v37H292.54V24.18h20.11V36.65q.19-3.82,5.72-8.78c3.69-3.31,8.28-5,14-5,9.54,0,19,5.48,24.18,14.76,1.14-3.18,3.94-6.36,8.14-9.67S374.36,22.9,381,22.9Z"/></g></g><g class="cls-1"><path class="cls-2" d="M259.91,99.27h31.68q15.07,0,24.05,8.4c6.11,5.6,9.16,13,9.16,22.27,0,9-3.05,16.29-9,21.5s-14.13,7.76-24.18,7.76H280.4v29.14H259.91Zm20.49,42.5h9.92c9.29,0,14-3.94,14-11.83s-4.71-11.84-14-11.84H280.4Z"/></g><g class="cls-1"><path class="cls-2" d="M355.72,189.62c-8.27,0-15.65-3.06-22.39-9s-9.93-14.5-9.93-25.32,3.31-19.34,9.93-25.32,14.12-9,22.39-9a24.07,24.07,0,0,1,9.29,1.79c5.73,2.41,7.51,4.7,8.91,6.87h.89v-7.38h20.1v66.16h-20.1V181h-.89a16.94,16.94,0,0,1-2.8,3.44C368.7,186.56,362.47,189.62,355.72,189.62Zm3.18-17.69c8.78,0,16.29-6.36,16.29-16.67s-7.51-16.67-16.29-16.67c-9,0-16.16,6.36-16.16,16.67S349.87,171.93,358.9,171.93Z"/><path class="cls-2" d="M442.63,164.68l17.43-42.5h20.62l-28.76,66.16L440.6,212.52H420.49l12-25.83-27.86-64.51h20.48Z"/></g><path class="cls-3" d="M181.25,193.86l-4.89-1c-1.29-.4-2.58-.78-3.86-1.21a45.74,45.74,0,0,1-20-13.19,46.85,46.85,0,0,1-12.09-35.24c.07-1.05.18-2.1.28-3.16.32-1.63.63-3.26.95-4.89.07-.18.16-.35.21-.53a44.71,44.71,0,0,1,3.61-9.5,47.56,47.56,0,0,1,55-24.2,46.27,46.27,0,0,1,23.13,14.55,47.4,47.4,0,0,1,8.54,48.32A45.9,45.9,0,0,1,219,182.56a47,47,0,0,1-34.65,11.56c-1-.06-2-.17-3-.25Zm-34.28-55A41.56,41.56,0,1,0,195.7,106,41.61,41.61,0,0,0,147,138.85Z"/><path class="cls-3" d="M186.16,169.86l-1.26,6.53-5.5-1.06c.06-.32.12-.61.18-.91.32-1.67.63-3.34,1-5,.1-.47,0-.66-.47-.82a14,14,0,0,1-8.56-7,18.69,18.69,0,0,1-1.85-8l8.94-.58c0,.57,0,1.08.08,1.6.35,4.17,2.8,6.71,7,7.23.42,0,.85.07,1.27.09a5.22,5.22,0,0,0,5.36-5.82,3.82,3.82,0,0,0-1.73-2.95c-1.62-1.14-3.29-2.22-4.94-3.32-2-1.32-4-2.52-5.9-4a11.88,11.88,0,0,1-4.67-11.28,14.75,14.75,0,0,1,4-8.69,11.84,11.84,0,0,1,8.11-3.72,16,16,0,0,1,2.08,0c.42,0,.52-.14.59-.5.23-1.29.49-2.58.74-3.87l.13-.67,5.52,1.07c-.21,1.07-.41,2.13-.62,3.18-.09.47-.17.95-.28,1.42-.07.32,0,.48.35.59a14.87,14.87,0,0,1,4.15,2.14,13.29,13.29,0,0,1,5.14,8.76c.1.56.17,1.13.25,1.75L197,137.67c-.16-.74-.29-1.44-.48-2.12a8.32,8.32,0,0,0-2.37-4.23,5.69,5.69,0,0,0-7.24-.4,4.52,4.52,0,0,0-.07,7.2c1.75,1.35,3.67,2.48,5.51,3.72s3.6,2.39,5.31,3.71a11.94,11.94,0,0,1,4.87,11.2,13.76,13.76,0,0,1-14.58,13.16c-.56,0-1.12,0-1.76-.06Z"/></g></g></svg>