<?xml version="1.0" encoding="UTF-8"?>
<svg id="Camada_2" data-name="Camada 2" xmlns="http://www.w3.org/2000/svg" viewBox="0 0 94.99 95.01">
  <defs>
    <style>
      .cls-1 {
        fill: #1adcff;
      }
    </style>
  </defs>
  <g id="Camada_1-2" data-name="Camada 1">
    <g>
      <path class="cls-1" d="M40.96,94.65l-4.89-.95c-1.29-.4-2.58-.78-3.86-1.21-7.83-2.64-14.55-7.01-20.01-13.19C3.31,69.25-.74,57.48,.11,44.06c.07-1.05,.18-2.1,.28-3.16,.32-1.63,.63-3.26,.95-4.89,.07-.18,.16-.35,.21-.53,.85-3.3,2.04-6.48,3.61-9.5C10.18,16.25,17.66,9.02,27.6,4.43,38.1-.43,48.99-1.26,60.13,1.78c9.16,2.49,16.88,7.39,23.13,14.55,11.62,13.33,14.89,31.82,8.54,48.32-2.82,7.32-7.17,13.6-13.14,18.7-9.98,8.52-21.54,12.39-34.65,11.56-1.02-.06-2.03-.17-3.04-.25ZM6.68,39.64c-4.35,22.48,10.39,44.31,32.87,48.69,22.47,4.38,44.34-10.38,48.73-32.89,4.37-22.44-10.4-44.32-32.87-48.69C32.9,2.38,11.03,17.15,6.68,39.64Z"/>
      <path class="cls-1" d="M45.87,70.65l-1.26,6.53-5.5-1.06c.06-.32,.12-.61,.18-.91,.32-1.67,.63-3.34,.98-5,.1-.47,.02-.66-.47-.82-3.74-1.23-6.73-3.4-8.56-6.97-1.27-2.49-1.75-5.16-1.85-8.02,3-.19,5.95-.38,8.94-.58,.03,.57,.04,1.08,.08,1.6,.35,4.17,2.8,6.71,6.96,7.23,.42,.05,.85,.07,1.27,.09,3.36,.14,5.56-2.68,5.36-5.82-.08-1.26-.73-2.25-1.73-2.95-1.62-1.14-3.29-2.22-4.94-3.32-1.97-1.32-4.03-2.52-5.9-3.97-3.67-2.84-5.15-6.7-4.67-11.28,.35-3.32,1.67-6.22,3.96-8.69,2.2-2.37,4.95-3.47,8.11-3.72,.69-.05,1.39-.08,2.08-.04,.42,.02,.52-.14,.59-.5,.23-1.29,.49-2.58,.74-3.87,.04-.21,.08-.41,.13-.67l5.52,1.07c-.21,1.07-.41,2.13-.62,3.18-.09,.47-.17,.95-.28,1.42-.07,.32,.01,.48,.35,.59,1.49,.5,2.88,1.2,4.15,2.14,2.96,2.19,4.5,5.21,5.14,8.76,.1,.56,.17,1.13,.25,1.75-2.76,.55-5.46,1.09-8.19,1.64-.16-.74-.29-1.44-.48-2.12-.44-1.6-1.09-3.1-2.37-4.23-2.08-1.86-5.24-2.03-7.24-.4-2.37,1.93-2.46,5.35-.07,7.2,1.75,1.35,3.67,2.48,5.51,3.72,1.78,1.22,3.6,2.39,5.31,3.71,3.66,2.82,5.32,6.6,4.87,11.2-.41,4.2-2.07,7.81-5.5,10.44-2.68,2.06-5.78,2.73-9.08,2.72-.56,0-1.12-.04-1.76-.06Z"/>
    </g>
  </g>
</svg>